<?xml version="1.0" encoding="UTF-8"?>
<svg fill="none" viewBox="0 0 251 66" xmlns="http://www.w3.org/2000/svg">
<g clip-path="url(#a)">
<path d="m73.92 24.6v-13.88l5.69-3.29h12.41l5.69 3.29v6.52h-6.87v-3.92h-10.05v8.19h11.23l5.69 3.29v14.17l-5.69 3.29h-12.9l-5.69-3.29v-6.52h6.87v3.92h10.55v-8.48h-11.23l-5.69-3.29h-0.01z" fill="#fff"/>
<path d="m109.97 27.3v8.83h13.68v5.89h-20.55v-34.34h20.55v5.89h-13.68v7.85h10.74v5.89h-10.74v-0.01z" fill="#fff"/>
<path d="m133.95 19.79v22.22h-6.87v-34.33h6.43l14.81 22.22h0.1v-22.22h6.87v34.33h-6.42l-14.81-22.22h-0.11z" fill="#fff"/>
<path d="m167.55 27.3v14.71h-6.87v-34.33h6.87v13.73h13.49v-13.73h6.87v34.33h-6.87v-14.71h-13.49z" fill="#fff"/>
<path d="m209.19 7.6797 12.26 34.33h-6.77l-2.6-7.41h-12.85l-2.6 7.41h-6.77l12.26-34.33h7.07zm-3.58 8.63-4.32 12.41h8.68l-4.27-12.41h-0.1 0.01z" fill="#fff"/>
<path d="m223.41 24.6v-13.88l5.69-3.29h12.41l5.69 3.29v6.52h-6.87v-3.92h-10.05v8.19h11.23l5.69 3.29v14.17l-5.69 3.29h-12.9l-5.69-3.29v-6.52h6.87v3.92h10.54v-8.48h-11.23l-5.69-3.29z" fill="#fff"/>
<path d="m203.9 49.97c0.57-0.36 1.24-0.54 2.01-0.54s1.43 0.17 2.02 0.52 1.06 0.84 1.4 1.48 0.51 1.38 0.51 2.23-0.17 1.5899-0.51 2.23c-0.34 0.64-0.8 1.14-1.4 1.49s-1.27 0.53-2.01 0.53c-0.79 0-1.46-0.1801-2.03-0.5401-0.57-0.3599-0.98-0.8199-1.24-1.3999v1.8099h-1.04v-11.17h1.04v4.75c0.27-0.57 0.69-1.04 1.26-1.4l-0.01 0.01zm4.47 1.91c-0.27-0.5-0.63-0.88-1.09-1.14s-0.99-0.3901-1.57-0.3901-1.08 0.14-1.55 0.41-0.84 0.66-1.11 1.16-0.41 1.09-0.41 1.75 0.14 1.25 0.41 1.75 0.64 0.8901 1.11 1.1601 0.98 0.41 1.55 0.41 1.11-0.13 1.57-0.4 0.83-0.65 1.09-1.16c0.27-0.51 0.4-1.1 0.4-1.77s-0.13-1.28-0.4-1.77v-0.01z" fill="#FC820A"/>
<path d="m218.58 49.551-4.89 12.12h-1.1l1.6-3.92-3.38-8.2h1.16l2.81 7.03 2.72-7.03h1.09-0.01z" fill="#FC820A"/>
<path d="m224.67 57.25c-0.6-0.44-0.93-1.03-1-1.79h1.09c0.05 0.46 0.27 0.84 0.66 1.12 0.39 0.29 0.91 0.43 1.56 0.43 0.57 0 1.02-0.14 1.35-0.41s0.49-0.61 0.49-1.01c0-0.28-0.09-0.51-0.27-0.69s-0.41-0.32-0.69-0.43-0.65-0.22-1.12-0.34c-0.61-0.16-1.11-0.32-1.49-0.48s-0.71-0.4-0.97-0.72c-0.27-0.32-0.4-0.74-0.4-1.28 0-0.4 0.12-0.77 0.36-1.12 0.24-0.34 0.58-0.61 1.03-0.81 0.44-0.2 0.95-0.3 1.51-0.3 0.88 0 1.6 0.22 2.14 0.67s0.83 1.06 0.88 1.85h-1.06c-0.03-0.48-0.22-0.87-0.57-1.17s-0.82-0.45-1.43-0.45c-0.53 0-0.97 0.13-1.3 0.38s-0.5 0.56-0.5 0.94c0 0.32 0.1 0.59 0.29 0.79s0.44 0.37 0.73 0.48c0.29 0.12 0.68 0.24 1.18 0.38 0.59 0.16 1.07 0.32 1.42 0.47s0.65 0.37 0.91 0.66c0.25 0.29 0.38 0.68 0.39 1.16 0 0.44-0.12 0.84-0.36 1.18-0.24 0.35-0.58 0.62-1.01 0.82s-0.93 0.3-1.49 0.3c-0.95 0-1.72-0.22-2.32-0.66l-0.01 0.03z" fill="#FC820A"/>
<path d="m231.15 55.22v-0.8l5.49-7.39h1.25v7.27h1.62v0.92h-1.62v2.57h-1.04v-2.57h-5.71 0.01zm5.75-7.03-4.53 6.11h4.53v-6.11z" fill="#FC820A"/>
<path d="m241.61 57.25c-0.6-0.44-0.93-1.03-1-1.79h1.09c0.05 0.46 0.27 0.84 0.66 1.12 0.39 0.29 0.91 0.43 1.56 0.43 0.57 0 1.02-0.14 1.35-0.41s0.49-0.61 0.49-1.01c0-0.28-0.09-0.51-0.27-0.69s-0.41-0.32-0.69-0.43-0.65-0.22-1.12-0.34c-0.61-0.16-1.11-0.32-1.49-0.48s-0.71-0.4-0.97-0.72c-0.27-0.32-0.4-0.74-0.4-1.28 0-0.4 0.12-0.77 0.36-1.12 0.24-0.34 0.58-0.61 1.03-0.81 0.44-0.2 0.95-0.3 1.51-0.3 0.88 0 1.6 0.22 2.14 0.67s0.83 1.06 0.88 1.85h-1.06c-0.03-0.48-0.22-0.87-0.57-1.17s-0.82-0.45-1.43-0.45c-0.53 0-0.97 0.13-1.3 0.38s-0.5 0.56-0.5 0.94c0 0.32 0.1 0.59 0.29 0.79s0.44 0.37 0.73 0.48c0.29 0.12 0.68 0.24 1.18 0.38 0.59 0.16 1.07 0.32 1.42 0.47s0.65 0.37 0.91 0.66c0.25 0.29 0.38 0.68 0.39 1.16 0 0.44-0.12 0.84-0.36 1.18-0.24 0.35-0.58 0.62-1.01 0.82s-0.93 0.3-1.49 0.3c-0.95 0-1.72-0.22-2.32-0.66l-0.01 0.03z" fill="#FC820A"/>
<rect x="9" y="6" width="58" height="54" rx="5" fill="#121212"/>
<path d="m45.32 40.56v6.7h-5.97v-6.7h-14.35v-4.32l15-19.24h5.32v18.68h3.72v4.89h-3.72v-0.01zm-13.62-4.89h7.65v-9.77h-0.09l-7.57 9.68v0.09h0.01z" fill="#FC820A"/>
<path d="m59.5 57c2.4853 0 4.5-2.0147 4.5-4.5s-2.0147-4.5-4.5-4.5-4.5 2.0147-4.5 4.5 2.0147 4.5 4.5 4.5z" fill="#fff"/>
</g>
<defs>
<clipPath id="a">
<rect transform="translate(4 4)" width="243" height="58" fill="#fff"/>
</clipPath>
</defs>
</svg>
