<svg width="318" height="126" viewBox="0 0 318 126" fill="none" xmlns="http://www.w3.org/2000/svg">
<g clip-path="url(#clip0_12868_44770)">
<path d="M80.3956 58.9294V89.0936H66.3164V18.7129H109.469V30.7785H80.3956V46.8638H103.433V58.9294H80.3956Z" fill="black"/>
<path d="M120.531 89.0867V18.7129H134.61V89.0867H120.531Z" fill="black"/>
<path d="M151.714 89.0867V18.7129H165.793V77.0279H189.834V89.0936H151.707L151.714 89.0867Z" fill="black"/>
<path d="M233.492 18.7129L258.639 89.0867H244.758L239.425 73.9023H213.069L207.737 89.0867H193.855L219.003 18.7129H233.485H233.492ZM226.152 36.4087L217.303 61.8435H235.11L226.356 36.4087H226.158H226.152Z" fill="black"/>
<path d="M268.695 53.3949V24.9437L280.364 18.208H305.812L317.481 24.9437V38.3129H303.401V30.2668H282.781V47.055H305.819L317.487 53.7907V82.8493L305.819 89.585H279.36L267.691 82.8493V69.4802H281.771V77.5262H303.395V60.1307H280.357L268.688 53.3949H268.695Z" fill="black"/>
<path d="M47.757 73.5065V89.0867H33.8758V73.5065H0.480469V63.4541L35.3848 18.7129H47.757V62.1437H56.408V73.5065H47.757ZM16.0686 62.1437H33.8758V39.4251H33.6778L16.0754 61.9458V62.1437H16.0686Z" fill="#FD8208"/>
<path d="M242.736 106.066C243.705 105.451 244.852 105.137 246.17 105.137C247.488 105.137 248.608 105.431 249.618 106.025C250.629 106.618 251.421 107.458 252.001 108.543C252.575 109.635 252.861 110.897 252.861 112.337C252.861 113.777 252.575 115.047 252.001 116.145C251.428 117.244 250.629 118.09 249.611 118.691C248.587 119.291 247.447 119.592 246.177 119.592C244.839 119.592 243.685 119.285 242.715 118.677C241.746 118.07 241.035 117.278 240.592 116.295V119.38H238.816V100.347H240.592V108.447C241.056 107.471 241.773 106.673 242.742 106.052L242.736 106.066ZM250.356 109.321C249.898 108.475 249.277 107.826 248.492 107.376C247.7 106.932 246.812 106.707 245.815 106.707C244.818 106.707 243.971 106.939 243.179 107.403C242.387 107.867 241.752 108.529 241.288 109.382C240.824 110.242 240.592 111.232 240.592 112.365C240.592 113.497 240.824 114.494 241.288 115.347C241.752 116.207 242.381 116.862 243.179 117.326C243.978 117.79 244.859 118.022 245.815 118.022C246.771 118.022 247.7 117.797 248.492 117.34C249.284 116.882 249.905 116.227 250.356 115.36C250.813 114.494 251.038 113.491 251.038 112.337C251.038 111.184 250.813 110.167 250.356 109.314V109.321Z" fill="#EE6B00"/>
<path d="M267.762 105.349L259.425 126.006H257.547L260.278 119.318L254.516 105.349H256.496L261.282 117.332L265.911 105.349H267.762Z" fill="#EE6B00"/>
<path d="M279.586 118.957C278.685 118.548 277.975 117.975 277.463 117.238C276.951 116.501 276.671 115.675 276.637 114.767H278.542C278.624 115.641 279.013 116.412 279.702 117.067C280.385 117.729 281.389 118.057 282.714 118.057C283.929 118.057 284.898 117.743 285.609 117.115C286.319 116.487 286.674 115.695 286.674 114.733C286.674 113.962 286.476 113.341 286.08 112.87C285.684 112.399 285.199 112.044 284.612 111.812C284.031 111.58 283.219 111.328 282.195 111.055C280.993 110.727 280.044 110.413 279.341 110.106C278.637 109.799 278.036 109.314 277.538 108.666C277.04 108.018 276.794 107.131 276.794 106.018C276.794 105.09 277.033 104.264 277.518 103.534C277.995 102.804 278.678 102.238 279.552 101.821C280.426 101.412 281.43 101.207 282.563 101.207C284.229 101.207 285.568 101.616 286.592 102.429C287.609 103.241 288.203 104.292 288.353 105.582H286.401C286.278 104.844 285.875 104.189 285.192 103.616C284.502 103.043 283.581 102.756 282.413 102.756C281.334 102.756 280.433 103.043 279.709 103.616C278.986 104.189 278.63 104.974 278.63 105.971C278.63 106.728 278.828 107.335 279.224 107.799C279.621 108.264 280.112 108.612 280.706 108.857C281.3 109.096 282.099 109.355 283.11 109.628C284.277 109.956 285.219 110.277 285.943 110.591C286.66 110.911 287.275 111.396 287.773 112.044C288.271 112.699 288.517 113.573 288.517 114.665C288.517 115.504 288.292 116.303 287.848 117.06C287.404 117.818 286.742 118.425 285.868 118.889C284.994 119.353 283.949 119.585 282.727 119.585C281.505 119.585 280.501 119.381 279.6 118.971L279.586 118.957Z" fill="#EE6B00"/>
<path d="M290.797 115.019V113.655L300.165 101.05H302.302V113.45H305.054V115.019H302.302V119.394H300.527V115.019H290.797ZM300.602 103.029L292.879 113.443H300.602V103.029Z" fill="#EE6B00"/>
<path d="M308.647 118.48C307.623 117.736 307.056 116.719 306.934 115.429H308.784C308.866 116.221 309.241 116.855 309.904 117.347C310.566 117.838 311.454 118.077 312.567 118.077C313.543 118.077 314.315 117.845 314.868 117.381C315.428 116.917 315.707 116.343 315.707 115.661C315.707 115.183 315.55 114.787 315.243 114.48C314.936 114.173 314.547 113.928 314.076 113.75C313.604 113.573 312.963 113.375 312.157 113.17C311.112 112.897 310.259 112.624 309.61 112.344C308.961 112.071 308.408 111.662 307.951 111.123C307.493 110.584 307.268 109.86 307.268 108.946C307.268 108.263 307.473 107.629 307.883 107.042C308.292 106.462 308.88 105.998 309.631 105.65C310.382 105.301 311.242 105.138 312.205 105.138C313.714 105.138 314.936 105.52 315.858 106.284C316.786 107.049 317.285 108.1 317.353 109.437H315.55C315.503 108.611 315.175 107.949 314.588 107.444C313.994 106.939 313.188 106.687 312.157 106.687C311.249 106.687 310.511 106.898 309.945 107.328C309.378 107.758 309.098 108.291 309.098 108.925C309.098 109.471 309.269 109.922 309.603 110.277C309.938 110.631 310.354 110.904 310.853 111.102C311.351 111.3 312.02 111.519 312.86 111.757C313.871 112.03 314.676 112.297 315.277 112.556C315.878 112.815 316.39 113.191 316.82 113.689C317.251 114.187 317.469 114.849 317.49 115.668C317.49 116.425 317.285 117.094 316.875 117.688C316.465 118.282 315.885 118.746 315.148 119.087C314.41 119.428 313.563 119.599 312.601 119.599C310.989 119.599 309.672 119.223 308.647 118.48Z" fill="#EE6B00"/>
<path d="M126.968 14.2495C130.905 14.2495 134.097 11.0596 134.097 7.12474C134.097 3.18985 130.905 0 126.968 0C123.031 0 119.84 3.18985 119.84 7.12474C119.84 11.0596 123.031 14.2495 126.968 14.2495Z" fill="#FD8208"/>
</g>
<defs>
<clipPath id="clip0_12868_44770">
<rect width="317" height="126" fill="white" transform="translate(0.480469)"/>
</clipPath>
</defs>
</svg>
